<svg width="16" height="16" viewBox="0 0 16 16" fill="none" xmlns="http://www.w3.org/2000/svg">
<path d="M12.4733 5.47333C12.4113 5.41085 12.3376 5.36125 12.2563 5.32741C12.1751 5.29356 12.088 5.27613 12 5.27613C11.912 5.27613 11.8248 5.29356 11.7436 5.32741C11.6623 5.36125 11.5886 5.41085 11.5266 5.47333L8.47329 8.52666C8.41132 8.58915 8.33758 8.63874 8.25634 8.67259C8.1751 8.70643 8.08797 8.72386 7.99996 8.72386C7.91195 8.72386 7.82481 8.70643 7.74357 8.67259C7.66233 8.63874 7.5886 8.58915 7.52663 8.52666L4.47329 5.47333C4.41132 5.41085 4.33758 5.36125 4.25634 5.32741C4.1751 5.29356 4.08797 5.27613 3.99996 5.27613C3.91195 5.27613 3.82481 5.29356 3.74357 5.32741C3.66233 5.36125 3.5886 5.41085 3.52663 5.47333C3.40246 5.59824 3.33276 5.76721 3.33276 5.94333C3.33276 6.11946 3.40246 6.28842 3.52663 6.41333L6.58663 9.47332C6.96163 9.84786 7.46996 10.0582 7.99996 10.0582C8.52996 10.0582 9.03829 9.84786 9.41329 9.47332L12.4733 6.41333C12.5975 6.28842 12.6672 6.11946 12.6672 5.94333C12.6672 5.76721 12.5975 5.59824 12.4733 5.47333Z" fill="white"/>
</svg>
