<svg width="10" height="10" viewBox="0 0 10 10" xmlns="http://www.w3.org/2000/svg">
<g clip-path="url(#clip0_6_16)">
<path d="M4.925 0.264445C4.82978 0.280045 4.7411 0.325099 4.67198 0.394213C4.58499 0.481209 4.53611 0.599201 4.53611 0.722232V4.53612H0.722225C0.599194 4.53612 0.481202 4.585 0.394206 4.67199C0.30721 4.75899 0.258336 4.87698 0.258336 5.00001V5.07501H0.264437C0.280038 5.17024 0.325091 5.25891 0.394206 5.32803C0.481202 5.41502 0.599194 5.4639 0.722225 5.4639H4.53611V9.27779C4.53611 9.40082 4.58499 9.51881 4.67198 9.60581C4.75898 9.6928 4.87697 9.74168 5 9.74168C5.12303 9.74168 5.24102 9.6928 5.32802 9.60581C5.41502 9.51881 5.46389 9.40082 5.46389 9.27779V5.4639H9.27778C9.40081 5.4639 9.5188 5.41502 9.6058 5.32803C9.6928 5.24103 9.74167 5.12304 9.74167 5.00001C9.74167 4.87698 9.6928 4.75899 9.6058 4.67199C9.5188 4.585 9.40081 4.53612 9.27778 4.53612H5.46389V0.722232C5.46389 0.599201 5.41502 0.481209 5.32802 0.394213C5.24102 0.307217 5.12303 0.258344 5 0.258344H4.925V0.264445Z" stroke="#363636" stroke-width="0.15"/>
</g>
<defs>
<clipPath id="clip0_6_16">
<rect width="10" height="10"/>
</clipPath>
</defs>
</svg>
