<svg width="18" height="18" viewBox="0 0 18 18" xmlns="http://www.w3.org/2000/svg">
<g clip-path="url(#clip0_16_160)">
<path d="M8.99993 17.9453C8.50748 17.946 8.01974 17.8495 7.56465 17.6614C7.10957 17.4732 6.69609 17.1971 6.34793 16.8488L1.15043 11.6506C0.44741 10.9473 0.0524769 9.99369 0.0524769 8.99932C0.0524769 8.00495 0.44741 7.0513 1.15043 6.34807L6.34793 1.14982C7.05199 0.447812 8.00568 0.0536003 8.99993 0.0536003C9.99417 0.0536003 10.9479 0.447812 11.6519 1.14982L16.8494 6.34807C17.5524 7.0513 17.9474 8.00495 17.9474 8.99932C17.9474 9.99369 17.5524 10.9473 16.8494 11.6506L11.6519 16.8488C11.3038 17.1971 10.8903 17.4732 10.4352 17.6614C9.98012 17.8495 9.49237 17.946 8.99993 17.9453V17.9453ZM8.99993 1.55257C8.70441 1.55201 8.41169 1.60983 8.13857 1.7227C7.86546 1.83558 7.61733 2.00129 7.40843 2.21032L2.21093 7.40857C1.78912 7.83051 1.55216 8.4027 1.55216 8.99932C1.55216 9.59594 1.78912 10.1681 2.21093 10.5901L7.40843 15.7883C7.61738 15.9974 7.86548 16.1633 8.13856 16.2764C8.41163 16.3896 8.70433 16.4478 8.99993 16.4478C9.29552 16.4478 9.58822 16.3896 9.8613 16.2764C10.1344 16.1633 10.3825 15.9974 10.5914 15.7883L15.7889 10.5901C16.2107 10.1681 16.4477 9.59594 16.4477 8.99932C16.4477 8.4027 16.2107 7.83051 15.7889 7.40857L10.5914 2.21032C10.3825 2.00129 10.1344 1.83558 9.86128 1.7227C9.58817 1.60983 9.29545 1.55201 8.99993 1.55257V1.55257Z"/>
</g>
<defs>
<clipPath id="clip0_16_160">
<rect width="18" height="18"/>
</clipPath>
</defs>
</svg>
